<svg width="24" height="25" viewBox="0 0 24 25" fill="none" xmlns="http://www.w3.org/2000/svg">
<path fill-rule="evenodd" clip-rule="evenodd" d="M11.9995 2.44318C6.47665 2.44318 2 6.92032 2 12.4437C2 17.9664 6.47701 22.4441 11.9995 22.4441C17.5223 22.4441 22 17.9662 22 12.4437C22 6.92056 17.5226 2.44318 11.9995 2.44318ZM11.9995 0.443176C18.6272 0.443176 24 5.81599 24 12.4437C24 19.0704 18.6272 24.4441 11.9995 24.4441C5.37184 24.4441 0 19.0704 0 12.4437C0 5.81599 5.37184 0.443176 11.9995 0.443176ZM11.3654 5.59888C11.3654 5.02689 11.8292 4.56262 12.4016 4.56262C12.9741 4.56262 13.4379 5.02689 13.4379 5.59888V14.8265H6.63626C6.06358 14.8265 5.6 14.3629 5.6 13.7903C5.6 13.2176 6.06358 12.754 6.63626 12.754H11.3654V5.59888Z" fill="white"/>
</svg>
