<svg width="17" height="17" viewBox="0 0 17 17" fill="none" xmlns="http://www.w3.org/2000/svg">
<path fill-rule="evenodd" clip-rule="evenodd" d="M0.778174 0.66549C0.192388 1.25128 0.192388 2.20102 0.778174 2.78681L6.43503 8.44366L0.778174 14.1005C0.192388 14.6863 0.192388 15.6361 0.778174 16.2218C1.36396 16.8076 2.31371 16.8076 2.89949 16.2218L8.55635 10.565L14.2132 16.2218C14.799 16.8076 15.7487 16.8076 16.3345 16.2218C16.9203 15.6361 16.9203 14.6863 16.3345 14.1005L10.6777 8.44366L16.3345 2.78681C16.9203 2.20102 16.9203 1.25128 16.3345 0.66549C15.7487 0.0797035 14.799 0.0797042 14.2132 0.66549L8.55635 6.32234L2.89949 0.66549C2.31371 0.0797037 1.36396 0.0797035 0.778174 0.66549Z" fill="white"/>
</svg>
