<svg width="30" height="30" viewBox="0 0 30 30" fill="none" xmlns="http://www.w3.org/2000/svg">
<circle cx="15" cy="15" r="14.5" transform="rotate(-90 15 15)" fill="#2D353B" stroke="#686E72"/>
<path fill-rule="evenodd" clip-rule="evenodd" d="M15 6C14.617 6 14.3072 6.30986 14.3072 6.69282V6.8112C14.3072 7.14224 14.075 7.43756 13.7473 7.49114C13.5899 7.51523 13.4329 7.54638 13.2771 7.58044C12.9556 7.65479 12.6312 7.47328 12.5045 7.16841L12.4592 7.06124C12.313 6.70736 11.9093 6.53872 11.5554 6.68617C11.2015 6.83238 11.0329 7.23652 11.1808 7.58999L11.226 7.70214C11.3544 8.00535 11.2522 8.36713 10.9714 8.54075C10.8352 8.62507 10.7019 8.71437 10.5739 8.807C10.3044 8.99848 9.93303 8.95445 9.69919 8.72102L9.61653 8.6367C9.34572 8.36713 8.90751 8.36713 8.6367 8.6367C8.36713 8.90751 8.36713 9.34572 8.6367 9.61653L8.72102 9.69919C8.95445 9.93303 8.99848 10.3044 8.807 10.5739C8.71437 10.7019 8.62507 10.8352 8.54075 10.9714C8.36713 11.2522 8.00535 11.3544 7.70048 11.2277L7.58999 11.1824C7.23777 11.0362 6.83072 11.2032 6.68451 11.5571C6.53872 11.9093 6.7057 12.3147 7.05958 12.4609L7.16841 12.5045C7.47162 12.6312 7.65479 12.9556 7.58044 13.2771C7.54638 13.4329 7.51523 13.5899 7.48948 13.7473C7.43756 14.0737 7.14224 14.3072 6.8112 14.3072H6.69282C6.30986 14.3072 6 14.617 6 15C6 15.383 6.30986 15.6928 6.69282 15.6928H6.8112C7.14224 15.6928 7.43756 15.925 7.49114 16.2527C7.51523 16.4101 7.54638 16.5672 7.58044 16.7229C7.65479 17.0444 7.47328 17.3688 7.16841 17.4955L7.06124 17.5408C6.70736 17.687 6.53872 18.0907 6.68617 18.4446C6.83238 18.7985 7.23652 18.9671 7.58999 18.8192L7.70214 18.774C8.00701 18.6473 8.36713 18.7494 8.54241 19.0286C8.62673 19.1648 8.71437 19.2981 8.807 19.4277C9.00014 19.6973 8.95611 20.0686 8.72268 20.3008L8.6367 20.3851C8.36713 20.6559 8.36713 21.0941 8.6367 21.3633C8.90751 21.6345 9.34572 21.6345 9.61653 21.3633L9.70085 21.2806C9.9347 21.0472 10.3044 21.0015 10.5739 21.1947C10.7035 21.2873 10.8369 21.3766 10.9714 21.4609C11.2522 21.6345 11.3561 21.9963 11.2294 22.3012L11.1824 22.41C11.0362 22.7635 11.2049 23.1693 11.5571 23.3167C11.9106 23.4629 12.3147 23.296 12.4626 22.9421L12.5062 22.8333C12.6329 22.53 12.9573 22.3469 13.2783 22.4196C13.4341 22.4553 13.5899 22.486 13.7489 22.5122C14.0737 22.5624 14.3072 22.8578 14.3072 23.1888V23.3072C14.3072 23.6901 14.617 24 15 24C15.383 24 15.6928 23.6901 15.6928 23.3072V23.1888C15.6928 22.8578 15.925 22.5624 16.2527 22.5089C16.4101 22.4848 16.5672 22.4536 16.7229 22.4196C17.0444 22.3452 17.3688 22.5267 17.4955 22.8316L17.5408 22.9388C17.687 23.2926 18.0907 23.4613 18.4446 23.3138C18.7985 23.1676 18.9671 22.7635 18.8192 22.41L18.774 22.2979C18.6473 21.993 18.7494 21.6329 19.0286 21.4576C19.1648 21.3733 19.2981 21.2856 19.4277 21.193C19.6973 20.9999 20.0686 21.0439 20.3008 21.2773L20.3851 21.3633C20.6559 21.6329 21.0941 21.6329 21.3633 21.3633C21.6345 21.0925 21.6345 20.6543 21.3633 20.3835L21.2806 20.2992C21.0472 20.0653 21.0015 19.6956 21.1947 19.4261C21.2873 19.2965 21.3766 19.1631 21.4609 19.0269C21.6345 18.7478 21.9963 18.6439 22.3012 18.7706L22.41 18.8176C22.7635 18.9638 23.1693 18.7951 23.3167 18.4429C23.4629 18.0894 23.296 17.6853 22.9421 17.5374L22.8333 17.4938C22.53 17.3671 22.3469 17.0427 22.4196 16.7217C22.4553 16.5659 22.486 16.4101 22.5122 16.2511C22.5624 15.9263 22.8578 15.6928 23.1888 15.6928H23.3072C23.6901 15.6928 24 15.383 24 15C24 14.617 23.6901 14.3072 23.3072 14.3072H23.1888C22.8578 14.3072 22.5624 14.075 22.5089 13.7473C22.4848 13.5899 22.4536 13.4329 22.4196 13.2771C22.3452 12.9556 22.5267 12.6312 22.8316 12.5045L22.9388 12.4592C23.2926 12.313 23.4613 11.9093 23.3138 11.5554C23.1676 11.2015 22.7635 11.0329 22.41 11.1808L22.2979 11.226C21.993 11.3527 21.6329 11.2506 21.4576 10.9714C21.3733 10.8352 21.2856 10.7019 21.193 10.5723C20.9999 10.3027 21.0439 9.93137 21.2773 9.69919L21.3633 9.61487C21.6329 9.34406 21.6329 8.90585 21.3633 8.63504C21.0925 8.36547 20.6543 8.36547 20.3835 8.63504L20.3008 8.72102C20.067 8.95445 19.6956 9.00014 19.4261 8.807C19.2965 8.71437 19.1631 8.62507 19.0269 8.54075C18.7478 8.36713 18.6456 8.00535 18.7723 7.70048L18.8176 7.58999C18.9638 7.23777 18.7968 6.83072 18.4429 6.68451C18.0907 6.53872 17.6853 6.7057 17.5391 7.05958L17.4938 7.16841C17.3671 7.47162 17.0427 7.65479 16.7217 7.58044C16.5659 7.54638 16.4101 7.51523 16.2511 7.48948C15.925 7.43756 15.6928 7.14224 15.6928 6.8112V6.69282C15.6928 6.30986 15.383 6 15 6ZM15 9.46244C17.8232 9.46244 20.1496 11.5766 20.4906 14.3072H16.1975C15.9508 13.879 15.4934 13.616 15 13.616H14.9983L12.8518 9.894C13.5122 9.61654 14.2374 9.46244 15 9.46244ZM11.6559 10.5918L13.8025 14.3072C13.6808 14.5182 13.616 14.7566 13.616 15C13.616 15.2417 13.6808 15.4802 13.8025 15.6895L11.6543 19.4065C10.3239 18.3943 9.46243 16.7993 9.46243 15C9.46243 13.199 10.3255 11.604 11.6559 10.5918ZM16.1975 15.6928H20.4906C20.1496 18.4234 17.8232 20.5376 15 20.5376C14.2374 20.5376 13.5122 20.3835 12.8518 20.106L14.9983 16.384H15C15.4947 16.384 15.9508 16.1194 16.1975 15.6928Z" fill="white"/>
</svg>
