<svg width="49" height="49" viewBox="0 0 49 49" fill="none" xmlns="http://www.w3.org/2000/svg">
<path d="M24.5 4.08334C13.6179 13.3729 8.16666 21.3967 8.16666 28.175C8.16666 38.3425 15.925 44.9167 24.5 44.9167C33.075 44.9167 40.8333 38.3425 40.8333 28.175C40.8333 21.3967 35.3821 13.3729 24.5 4.08334ZM24.5 40.8333C17.6604 40.8333 12.25 35.5863 12.25 28.175C12.25 23.3975 16.2312 17.0683 24.5 9.51417C32.7687 17.0683 36.75 23.3771 36.75 28.175C36.75 35.5863 31.3396 40.8333 24.5 40.8333ZM15.9862 28.5833C16.7417 28.5833 17.3542 29.1142 17.4971 29.8492C18.3342 34.3817 22.1521 35.9333 24.9287 35.7088C25.8067 35.6679 26.5417 36.3621 26.5417 37.24C26.5417 38.0567 25.8883 38.7304 25.0717 38.7713C20.7229 39.0367 15.6392 36.5458 14.4754 30.3596C14.3121 29.4408 15.0471 28.5833 15.9862 28.5833Z" fill="white"/>
</svg>
